<svg width="887" height="85" viewBox="0 0 887 85" fill="none" xmlns="http://www.w3.org/2000/svg">
<path d="M128.862 43.848V45.032H125.822V55H124.366V45.032H121.31V43.848H128.862ZM135.006 46.072C135.667 46.072 136.265 46.216 136.798 46.504C137.331 46.7813 137.747 47.2027 138.046 47.768C138.355 48.3333 138.51 49.0213 138.51 49.832V55H137.07V50.04C137.07 49.1653 136.851 48.4987 136.414 48.04C135.977 47.5707 135.379 47.336 134.622 47.336C133.854 47.336 133.241 47.576 132.782 48.056C132.334 48.536 132.11 49.2347 132.11 50.152V55H130.654V43.16H132.11V47.48C132.398 47.032 132.793 46.6853 133.294 46.44C133.806 46.1947 134.377 46.072 135.006 46.072ZM148.888 50.28C148.888 50.5573 148.872 50.8507 148.84 51.16H141.832C141.886 52.024 142.179 52.7013 142.712 53.192C143.256 53.672 143.912 53.912 144.68 53.912C145.31 53.912 145.832 53.768 146.248 53.48C146.675 53.1813 146.974 52.7867 147.144 52.296H148.712C148.478 53.1387 148.008 53.8267 147.304 54.36C146.6 54.8827 145.726 55.144 144.68 55.144C143.848 55.144 143.102 54.9573 142.44 54.584C141.79 54.2107 141.278 53.6827 140.904 53C140.531 52.3067 140.344 51.5067 140.344 50.6C140.344 49.6933 140.526 48.8987 140.888 48.216C141.251 47.5333 141.758 47.0107 142.408 46.648C143.07 46.2747 143.827 46.088 144.68 46.088C145.512 46.088 146.248 46.2693 146.888 46.632C147.528 46.9947 148.019 47.496 148.36 48.136C148.712 48.7653 148.888 49.48 148.888 50.28ZM147.384 49.976C147.384 49.4213 147.262 48.9467 147.016 48.552C146.771 48.1467 146.435 47.8427 146.008 47.64C145.592 47.4267 145.128 47.32 144.616 47.32C143.88 47.32 143.251 47.5547 142.728 48.024C142.216 48.4933 141.923 49.144 141.848 49.976H147.384ZM154.532 50.584C154.532 49.688 154.713 48.904 155.076 48.232C155.438 47.5493 155.934 47.0213 156.564 46.648C157.204 46.2747 157.918 46.088 158.708 46.088C159.39 46.088 160.025 46.248 160.612 46.568C161.198 46.8773 161.646 47.288 161.956 47.8V43.16H163.428V55H161.956V53.352C161.668 53.8747 161.241 54.3067 160.676 54.648C160.11 54.9787 159.449 55.144 158.692 55.144C157.913 55.144 157.204 54.952 156.564 54.568C155.934 54.184 155.438 53.6453 155.076 52.952C154.713 52.2587 154.532 51.4693 154.532 50.584ZM161.956 50.6C161.956 49.9387 161.822 49.3627 161.556 48.872C161.289 48.3813 160.926 48.008 160.468 47.752C160.02 47.4853 159.524 47.352 158.98 47.352C158.436 47.352 157.94 47.48 157.492 47.736C157.044 47.992 156.686 48.3653 156.42 48.856C156.153 49.3467 156.02 49.9227 156.02 50.584C156.02 51.256 156.153 51.8427 156.42 52.344C156.686 52.8347 157.044 53.2133 157.492 53.48C157.94 53.736 158.436 53.864 158.98 53.864C159.524 53.864 160.02 53.736 160.468 53.48C160.926 53.2133 161.289 52.8347 161.556 52.344C161.822 51.8427 161.956 51.2613 161.956 50.6ZM169.712 55.144C168.891 55.144 168.144 54.9573 167.472 54.584C166.811 54.2107 166.288 53.6827 165.904 53C165.531 52.3067 165.344 51.5067 165.344 50.6C165.344 49.704 165.536 48.9147 165.92 48.232C166.315 47.5387 166.848 47.0107 167.52 46.648C168.192 46.2747 168.944 46.088 169.776 46.088C170.608 46.088 171.36 46.2747 172.032 46.648C172.704 47.0107 173.232 47.5333 173.616 48.216C174.011 48.8987 174.208 49.6933 174.208 50.6C174.208 51.5067 174.006 52.3067 173.6 53C173.206 53.6827 172.667 54.2107 171.984 54.584C171.302 54.9573 170.544 55.144 169.712 55.144ZM169.712 53.864C170.235 53.864 170.726 53.7413 171.184 53.496C171.643 53.2507 172.011 52.8827 172.288 52.392C172.576 51.9013 172.72 51.304 172.72 50.6C172.72 49.896 172.582 49.2987 172.304 48.808C172.027 48.3173 171.664 47.9547 171.216 47.72C170.768 47.4747 170.283 47.352 169.76 47.352C169.227 47.352 168.736 47.4747 168.288 47.72C167.851 47.9547 167.499 48.3173 167.232 48.808C166.966 49.2987 166.832 49.896 166.832 50.6C166.832 51.3147 166.96 51.9173 167.216 52.408C167.483 52.8987 167.835 53.2667 168.272 53.512C168.71 53.7467 169.19 53.864 169.712 53.864ZM179.739 46.088C180.496 46.088 181.157 46.2533 181.723 46.584C182.299 46.9147 182.725 47.3307 183.003 47.832V46.232H184.475V55.192C184.475 55.992 184.304 56.7013 183.963 57.32C183.621 57.9493 183.131 58.44 182.491 58.792C181.861 59.144 181.125 59.32 180.283 59.32C179.131 59.32 178.171 59.048 177.403 58.504C176.635 57.96 176.181 57.2187 176.043 56.28H177.483C177.643 56.8133 177.973 57.24 178.475 57.56C178.976 57.8907 179.579 58.056 180.283 58.056C181.083 58.056 181.733 57.8053 182.235 57.304C182.747 56.8027 183.003 56.0987 183.003 55.192V53.352C182.715 53.864 182.288 54.2907 181.723 54.632C181.157 54.9733 180.496 55.144 179.739 55.144C178.96 55.144 178.251 54.952 177.611 54.568C176.981 54.184 176.485 53.6453 176.123 52.952C175.76 52.2587 175.579 51.4693 175.579 50.584C175.579 49.688 175.76 48.904 176.123 48.232C176.485 47.5493 176.981 47.0213 177.611 46.648C178.251 46.2747 178.96 46.088 179.739 46.088ZM183.003 50.6C183.003 49.9387 182.869 49.3627 182.603 48.872C182.336 48.3813 181.973 48.008 181.515 47.752C181.067 47.4853 180.571 47.352 180.027 47.352C179.483 47.352 178.987 47.48 178.539 47.736C178.091 47.992 177.733 48.3653 177.467 48.856C177.2 49.3467 177.067 49.9227 177.067 50.584C177.067 51.256 177.2 51.8427 177.467 52.344C177.733 52.8347 178.091 53.2133 178.539 53.48C178.987 53.736 179.483 53.864 180.027 53.864C180.571 53.864 181.067 53.736 181.515 53.48C181.973 53.2133 182.336 52.8347 182.603 52.344C182.869 51.8427 183.003 51.2613 183.003 50.6ZM192.657 43.16V55H191.201V43.16H192.657ZM195.89 44.808C195.613 44.808 195.378 44.712 195.186 44.52C194.994 44.328 194.898 44.0933 194.898 43.816C194.898 43.5387 194.994 43.304 195.186 43.112C195.378 42.92 195.613 42.824 195.89 42.824C196.157 42.824 196.381 42.92 196.562 43.112C196.754 43.304 196.85 43.5387 196.85 43.816C196.85 44.0933 196.754 44.328 196.562 44.52C196.381 44.712 196.157 44.808 195.89 44.808ZM196.594 46.232V55H195.138V46.232H196.594ZM203.348 46.072C204.414 46.072 205.278 46.3973 205.94 47.048C206.601 47.688 206.932 48.616 206.932 49.832V55H205.492V50.04C205.492 49.1653 205.273 48.4987 204.836 48.04C204.398 47.5707 203.801 47.336 203.044 47.336C202.276 47.336 201.662 47.576 201.204 48.056C200.756 48.536 200.532 49.2347 200.532 50.152V55H199.076V46.232H200.532V47.48C200.82 47.032 201.209 46.6853 201.7 46.44C202.201 46.1947 202.75 46.072 203.348 46.072ZM217.31 50.28C217.31 50.5573 217.294 50.8507 217.262 51.16H210.254C210.307 52.024 210.601 52.7013 211.134 53.192C211.678 53.672 212.334 53.912 213.102 53.912C213.731 53.912 214.254 53.768 214.67 53.48C215.097 53.1813 215.395 52.7867 215.566 52.296H217.134C216.899 53.1387 216.43 53.8267 215.726 54.36C215.022 54.8827 214.147 55.144 213.102 55.144C212.27 55.144 211.523 54.9573 210.862 54.584C210.211 54.2107 209.699 53.6827 209.326 53C208.953 52.3067 208.766 51.5067 208.766 50.6C208.766 49.6933 208.947 48.8987 209.31 48.216C209.673 47.5333 210.179 47.0107 210.83 46.648C211.491 46.2747 212.249 46.088 213.102 46.088C213.934 46.088 214.67 46.2693 215.31 46.632C215.95 46.9947 216.441 47.496 216.782 48.136C217.134 48.7653 217.31 49.48 217.31 50.28ZM215.806 49.976C215.806 49.4213 215.683 48.9467 215.438 48.552C215.193 48.1467 214.857 47.8427 214.43 47.64C214.014 47.4267 213.55 47.32 213.038 47.32C212.302 47.32 211.673 47.5547 211.15 48.024C210.638 48.4933 210.345 49.144 210.27 49.976H215.806Z" fill="black"/>
<path d="M27.46 29.43C27.34 30.15 27.28 30.7 27.28 31.08C27.28 33.02 27.58 34.47 28.18 35.43C26.98 36.33 25.73 36.78 24.43 36.78C23.13 36.78 22.2 36.41 21.64 35.67C21.08 34.91 20.8 33.79 20.8 32.31C20.8 30.81 21.43 26.58 22.69 19.62L21.1 16.41C23.36 14.95 25.42 14.22 27.28 14.22C27.8 14.22 28.37 14.32 28.99 14.52C29.61 14.7 30.05 14.91 30.31 15.15C31.79 14.57 33.16 14.28 34.42 14.28C36.3 14.28 37.78 14.94 38.86 16.26C39.96 17.56 40.51 19.14 40.51 21C40.51 23.24 39.7 25.24 38.08 27C37.3 27.86 36.25 28.55 34.93 29.07C33.61 29.59 32.26 29.85 30.88 29.85C29.52 29.85 28.38 29.71 27.46 29.43ZM28.03 26.01C28.31 26.07 28.6 26.1 28.9 26.1C30.18 26.1 31.32 25.65 32.32 24.75C33.32 23.85 33.82 22.74 33.82 21.42C33.82 20.5 33.55 19.72 33.01 19.08C32.49 18.44 31.75 18.12 30.79 18.12C30.39 18.12 29.93 18.2 29.41 18.36C29.01 21.1 28.55 23.65 28.03 26.01ZM45.7539 36.78C44.5739 36.78 43.7039 36.41 43.1439 35.67C42.5839 34.91 42.3039 33.79 42.3039 32.31C42.3039 30.81 42.9339 26.58 44.1939 19.62L42.6039 16.41C44.8639 14.95 46.9239 14.22 48.7839 14.22C49.9639 14.22 50.6939 14.78 50.9739 15.9C53.2339 15.84 56.0539 15.33 59.4339 14.37C59.5939 15.03 59.6739 15.68 59.6739 16.32C59.6739 17.94 59.1339 19.16 58.0539 19.98C56.9939 20.8 55.6239 21.21 53.9439 21.21C52.8039 21.21 51.6839 20.97 50.5839 20.49C50.4239 21.39 50.1439 22.86 49.7439 24.9C50.4839 25.04 51.1139 25.11 51.6339 25.11C52.4539 24.95 53.3539 24.72 54.3339 24.42C54.4339 24.76 54.4839 25.32 54.4839 26.1C54.4839 26.86 54.1739 27.47 53.5539 27.93C52.9339 28.39 52.2339 28.62 51.4539 28.62C50.6939 28.62 49.9139 28.53 49.1139 28.35C48.8939 29.61 48.7839 30.8 48.7839 31.92H53.6439C55.1639 31.7 56.6939 31.31 58.2339 30.75C58.3539 31.11 58.4139 31.6 58.4139 32.22C58.4139 33.4 58.0639 34.45 57.3639 35.37C56.6839 36.29 55.7339 36.75 54.5139 36.75C53.8739 36.75 52.9339 36.62 51.6939 36.36C50.4739 36.12 49.5639 35.97 48.9639 35.91C48.0039 36.49 46.9339 36.78 45.7539 36.78ZM59.4681 19.44C59.4681 17.82 59.8881 16.6 60.7281 15.78C61.5681 14.96 62.5681 14.55 63.7281 14.55C64.9081 14.55 66.5081 14.75 68.5281 15.15C70.5481 15.55 72.0681 15.76 73.0881 15.78C74.7881 15.46 76.4081 15.07 77.9481 14.61C78.1081 15.13 78.1881 15.78 78.1881 16.56C78.1881 18.18 77.7181 19.4 76.7781 20.22C75.8581 21.04 74.6781 21.45 73.2381 21.45C72.8781 21.45 72.3981 21.43 71.7981 21.39C70.6981 27.17 70.1481 30.4 70.1481 31.08C70.1481 33.02 70.4481 34.47 71.0481 35.43C69.8481 36.33 68.5981 36.78 67.2981 36.78C65.9981 36.78 65.0681 36.41 64.5081 35.67C63.9481 34.91 63.6681 33.79 63.6681 32.31C63.6681 30.81 64.2481 26.83 65.4081 20.37C63.1481 20.67 61.2481 21.01 59.7081 21.39C59.5481 20.89 59.4681 20.24 59.4681 19.44ZM91.3141 36.78C90.0341 36.78 89.1141 36.41 88.5541 35.67C87.9941 34.91 87.7141 33.79 87.7141 32.31C87.7141 30.81 88.3441 26.58 89.6041 19.62L88.0141 16.41C90.2741 14.95 92.3341 14.22 94.1941 14.22C95.4341 14.22 96.1741 14.82 96.4141 16.02C98.4741 14.84 100.494 14.25 102.474 14.25C103.774 14.25 104.914 14.55 105.894 15.15C107.054 15.85 107.634 17.06 107.634 18.78C107.634 21.62 106.064 23.68 102.924 24.96C106.124 25.52 107.724 27.31 107.724 30.33C107.724 32.29 106.914 33.85 105.294 35.01C103.674 36.17 101.854 36.75 99.8341 36.75C97.8341 36.75 96.2241 36.33 95.0041 35.49C93.8241 36.35 92.5941 36.78 91.3141 36.78ZM100.794 29.67C100.794 28.73 100.514 28.04 99.9541 27.6C99.4141 27.16 98.6841 26.94 97.7641 26.94C96.8441 26.94 95.8141 27.13 94.6741 27.51C94.3541 29.21 94.1941 30.66 94.1941 31.86C95.1741 32.32 96.1941 32.55 97.2541 32.55C98.3141 32.55 99.1641 32.3 99.8041 31.8C100.464 31.3 100.794 30.59 100.794 29.67ZM98.8441 18.21C98.0641 18.21 97.2241 18.36 96.3241 18.66C96.2041 19.44 95.8341 21.44 95.2141 24.66C96.8741 24.54 98.2841 24.14 99.4441 23.46C100.604 22.76 101.184 21.76 101.184 20.46C101.184 18.96 100.404 18.21 98.8441 18.21ZM127.669 18.66L127.429 25.8C127.429 28.26 127.629 30.33 128.029 32.01C128.449 33.69 129.219 34.85 130.339 35.49C128.959 36.35 127.559 36.78 126.139 36.78C123.639 36.78 122.099 34.76 121.519 30.72H115.399C115.019 32.02 114.829 33.02 114.829 33.72C114.829 34.4 114.909 34.95 115.069 35.37C113.589 36.31 112.269 36.78 111.109 36.78C109.329 36.78 108.439 35.7 108.439 33.54C108.439 32.46 108.769 31.1 109.429 29.46C110.109 27.82 110.999 25.94 112.099 23.82C113.219 21.7 113.929 20.3 114.229 19.62C114.009 18.54 113.759 17.48 113.479 16.44C114.519 15.72 115.519 15.18 116.479 14.82C117.459 14.44 118.509 14.25 119.629 14.25C120.769 14.25 121.559 14.5 121.999 15C123.139 14.5 124.079 14.25 124.819 14.25C125.559 14.25 126.109 14.37 126.469 14.61C126.829 14.85 127.089 15.2 127.249 15.66C127.529 16.46 127.669 17.46 127.669 18.66ZM121.639 19.35H120.679C118.879 22.83 117.539 25.57 116.659 27.57H121.309C121.309 25.39 121.419 22.65 121.639 19.35ZM143.285 31.83L142.235 28.8C141.195 28.8 140.145 28.64 139.085 28.32C138.865 29.6 138.755 30.52 138.755 31.08C138.755 33.02 139.055 34.47 139.655 35.43C138.455 36.33 137.205 36.78 135.905 36.78C134.605 36.78 133.675 36.41 133.115 35.67C132.555 34.91 132.275 33.79 132.275 32.31C132.275 30.81 132.905 26.58 134.165 19.62L132.575 16.41C134.815 14.97 136.875 14.25 138.755 14.25C140.195 14.25 141.305 14.55 142.085 15.15C143.585 14.55 144.935 14.25 146.135 14.25C147.975 14.25 149.435 14.87 150.515 16.11C151.595 17.35 152.135 18.84 152.135 20.58C152.135 21.88 151.805 23.14 151.145 24.36C150.485 25.56 149.515 26.54 148.235 27.3C148.915 29.24 149.675 30.91 150.515 32.31C151.375 33.71 152.225 34.64 153.065 35.1C152.645 35.54 151.995 35.92 151.115 36.24C150.255 36.58 149.475 36.75 148.775 36.75C147.415 36.75 146.325 36.41 145.505 35.73C144.685 35.03 143.945 33.73 143.285 31.83ZM140.405 25.05C142.005 25.05 143.245 24.64 144.125 23.82C145.025 23 145.475 22.12 145.475 21.18C145.475 20.24 145.215 19.49 144.695 18.93C144.175 18.37 143.435 18.09 142.475 18.09C141.955 18.09 141.435 18.16 140.915 18.3C140.275 22.12 139.875 24.36 139.715 25.02C139.855 25.04 140.085 25.05 140.405 25.05ZM165.287 31.83L164.237 28.8C163.197 28.8 162.147 28.64 161.087 28.32C160.867 29.6 160.757 30.52 160.757 31.08C160.757 33.02 161.057 34.47 161.657 35.43C160.457 36.33 159.207 36.78 157.907 36.78C156.607 36.78 155.677 36.41 155.117 35.67C154.557 34.91 154.277 33.79 154.277 32.31C154.277 30.81 154.907 26.58 156.167 19.62L154.577 16.41C156.817 14.97 158.877 14.25 160.757 14.25C162.197 14.25 163.307 14.55 164.087 15.15C165.587 14.55 166.937 14.25 168.137 14.25C169.977 14.25 171.437 14.87 172.517 16.11C173.597 17.35 174.137 18.84 174.137 20.58C174.137 21.88 173.807 23.14 173.147 24.36C172.487 25.56 171.517 26.54 170.237 27.3C170.917 29.24 171.677 30.91 172.517 32.31C173.377 33.71 174.227 34.64 175.067 35.1C174.647 35.54 173.997 35.92 173.117 36.24C172.257 36.58 171.477 36.75 170.777 36.75C169.417 36.75 168.327 36.41 167.507 35.73C166.687 35.03 165.947 33.73 165.287 31.83ZM162.407 25.05C164.007 25.05 165.247 24.64 166.127 23.82C167.027 23 167.477 22.12 167.477 21.18C167.477 20.24 167.217 19.49 166.697 18.93C166.177 18.37 165.437 18.09 164.477 18.09C163.957 18.09 163.437 18.16 162.917 18.3C162.277 22.12 161.877 24.36 161.717 25.02C161.857 25.04 162.087 25.05 162.407 25.05ZM180.059 36.78C178.759 36.78 177.829 36.41 177.269 35.67C176.709 34.91 176.429 33.79 176.429 32.31C176.429 30.81 177.059 26.58 178.319 19.62L176.729 16.41C178.989 14.95 181.049 14.22 182.909 14.22C184.449 14.22 185.219 15.16 185.219 17.04C185.219 17.66 184.829 19.97 184.049 23.97C183.289 27.95 182.909 30.32 182.909 31.08C182.909 33.02 183.209 34.47 183.809 35.43C182.609 36.33 181.359 36.78 180.059 36.78ZM191.359 36.78C190.179 36.78 189.309 36.41 188.749 35.67C188.189 34.91 187.909 33.79 187.909 32.31C187.909 30.81 188.539 26.58 189.799 19.62L188.209 16.41C190.469 14.95 192.529 14.22 194.389 14.22C195.569 14.22 196.299 14.78 196.579 15.9C198.839 15.84 201.659 15.33 205.039 14.37C205.199 15.03 205.279 15.68 205.279 16.32C205.279 17.94 204.739 19.16 203.659 19.98C202.599 20.8 201.229 21.21 199.549 21.21C198.409 21.21 197.289 20.97 196.189 20.49C196.029 21.39 195.749 22.86 195.349 24.9C196.089 25.04 196.719 25.11 197.239 25.11C198.059 24.95 198.959 24.72 199.939 24.42C200.039 24.76 200.089 25.32 200.089 26.1C200.089 26.86 199.779 27.47 199.159 27.93C198.539 28.39 197.839 28.62 197.059 28.62C196.299 28.62 195.519 28.53 194.719 28.35C194.499 29.61 194.389 30.8 194.389 31.92H199.249C200.769 31.7 202.299 31.31 203.839 30.75C203.959 31.11 204.019 31.6 204.019 32.22C204.019 33.4 203.669 34.45 202.969 35.37C202.289 36.29 201.339 36.75 200.119 36.75C199.479 36.75 198.539 36.62 197.299 36.36C196.079 36.12 195.169 35.97 194.569 35.91C193.609 36.49 192.539 36.78 191.359 36.78ZM217.494 31.83L216.444 28.8C215.404 28.8 214.354 28.64 213.294 28.32C213.074 29.6 212.964 30.52 212.964 31.08C212.964 33.02 213.264 34.47 213.864 35.43C212.664 36.33 211.414 36.78 210.114 36.78C208.814 36.78 207.884 36.41 207.324 35.67C206.764 34.91 206.484 33.79 206.484 32.31C206.484 30.81 207.114 26.58 208.374 19.62L206.784 16.41C209.024 14.97 211.084 14.25 212.964 14.25C214.404 14.25 215.514 14.55 216.294 15.15C217.794 14.55 219.144 14.25 220.344 14.25C222.184 14.25 223.644 14.87 224.724 16.11C225.804 17.35 226.344 18.84 226.344 20.58C226.344 21.88 226.014 23.14 225.354 24.36C224.694 25.56 223.724 26.54 222.444 27.3C223.124 29.24 223.884 30.91 224.724 32.31C225.584 33.71 226.434 34.64 227.274 35.1C226.854 35.54 226.204 35.92 225.324 36.24C224.464 36.58 223.684 36.75 222.984 36.75C221.624 36.75 220.534 36.41 219.714 35.73C218.894 35.03 218.154 33.73 217.494 31.83ZM214.614 25.05C216.214 25.05 217.454 24.64 218.334 23.82C219.234 23 219.684 22.12 219.684 21.18C219.684 20.24 219.424 19.49 218.904 18.93C218.384 18.37 217.644 18.09 216.684 18.09C216.164 18.09 215.644 18.16 215.124 18.3C214.484 22.12 214.084 24.36 213.924 25.02C214.064 25.04 214.294 25.05 214.614 25.05Z" fill="black"/>
</svg>
